<svg xmlns="http://www.w3.org/2000/svg" fill="none" viewBox="0 0 24 16"><path fill="#EFF3F5" fill-rule="evenodd" d="M23.435 1.68514c.178-.57444 0-.992033-.7875-.992033H20.029c-.6605 0-.9655.365653-1.1435.756763 0 0-1.347 3.34074-3.228 5.50662-.61.62639-.8895.83518-1.22.83518-.178 0-.407-.20879-.407-.78273V1.65815c0-.67833-.203-.991524-.7625-.991524H9.15001c-.407 0-.661.313195-.661.626394 0 .65236.9405.80921 1.042 2.63592v3.96917c0 .86115-.15 1.01852-.483 1.01852-.8895 0-3.05-3.36672-4.346-7.20297C4.45001.953848 4.19401.666626 3.533.666626H.889501C.127.666626 0 1.03176 0 1.42339c0 .70481.889501 4.25384 4.14301 8.95121 2.1605 3.2084 5.236 4.9327 8.00649 4.9327 1.678 0 1.881-.3916 1.881-1.044v-2.4271c0-.7827.1525-.9131.6865-.9131.381 0 1.0675.2083 2.618 1.7483 1.779 1.8267 2.084 2.6619 3.0755 2.6619h2.618c.7625 0 1.1185-.3916.915-1.1484-.2285-.7567-1.093-1.8527-2.2115-3.1574-.61-.7303-1.525-1.53948-1.8045-1.93111-.381-.52199-.2795-.73078 0-1.20032-.0255 0 3.1775-4.64546 3.5075-6.21296" clip-rule="evenodd"/></svg>