<svg xmlns="http://www.w3.org/2000/svg" fill="none" viewBox="0 0 24 24"><path fill="#EFF3F5" d="M12 8c-1.0609 0-2.07828.42143-2.82843 1.17157C8.42143 9.92172 8 10.9391 8 12s.42143 2.0783 1.17157 2.8284C9.92172 15.5786 10.9391 16 12 16s2.0783-.4214 2.8284-1.1716C15.5786 14.0783 16 13.0609 16 12c0-1.0609-.4214-2.07828-1.1716-2.82843C14.0783 8.42143 13.0609 8 12 8Z"/><path fill="#EFF3F5" fill-rule="evenodd" d="M7.2 0C5.29044 0 3.45909.758569 2.10883 2.10883.758569 3.45909 0 5.29044 0 7.2v9.6c0 1.9096.758569 3.7409 2.10883 5.0912C3.45909 23.2414 5.29044 24 7.2 24h9.6c1.9096 0 3.7409-.7586 5.0912-2.1088C23.2414 20.5409 24 18.7096 24 16.8V7.2c0-1.90956-.7586-3.74091-2.1088-5.09117C20.5409.758569 18.7096 0 16.8 0H7.2Zm-.8 12c0-1.4852.59-2.90959 1.6402-3.9598C9.09041 6.99 10.5148 6.4 12 6.4c1.4852 0 2.9096.59 3.9598 1.6402C17.01 9.09041 17.6 10.5148 17.6 12c0 1.4852-.59 2.9096-1.6402 3.9598C14.9096 17.01 13.4852 17.6 12 17.6c-1.4852 0-2.90959-.59-3.9598-1.6402C6.99 14.9096 6.4 13.4852 6.4 12Zm11.2-5.6h1.6V4.8h-1.6v1.6Z" clip-rule="evenodd"/></svg>