<svg xmlns="http://www.w3.org/2000/svg">
<symbol id="instagram" viewBox="0 0 24 24"><path fill="#EFF3F5" d="M12 8a4 4 0 100 8 4 4 0 000-8z"/><path fill="#EFF3F5" fill-rule="evenodd" d="M7.2 0A7.2 7.2 0 000 7.2v9.6A7.2 7.2 0 007.2 24h9.6a7.2 7.2 0 007.2-7.2V7.2A7.2 7.2 0 0016.8 0H7.2zm-.8 12a5.6 5.6 0 1111.2 0 5.6 5.6 0 01-11.2 0zm11.2-5.6h1.6V4.8h-1.6v1.6z" clip-rule="evenodd"/></symbol>
<symbol id="vk" viewBox="0 0 24 16"><path fill="#EFF3F5" fill-rule="evenodd" d="M23.435 1.685c.178-.574 0-.992-.787-.992h-2.619c-.66 0-.966.366-1.143.757 0 0-1.347 3.34-3.228 5.506-.61.627-.89.836-1.22.836-.179 0-.408-.21-.408-.783v-5.35c0-.68-.202-.992-.762-.992H9.15a.638.638 0 00-.661.626c0 .652.94.81 1.042 2.636v3.97c0 .86-.15 1.018-.483 1.018-.89 0-3.05-3.367-4.346-7.203C4.45.954 4.194.667 3.533.667H.89c-.763 0-.89.365-.89.756 0 .705.89 4.254 4.143 8.952 2.16 3.208 5.236 4.932 8.006 4.932 1.679 0 1.882-.391 1.882-1.044v-2.427c0-.783.152-.913.686-.913.381 0 1.067.208 2.618 1.748 1.779 1.827 2.084 2.662 3.075 2.662h2.618c.763 0 1.119-.391.915-1.148-.228-.757-1.093-1.853-2.211-3.158-.61-.73-1.525-1.539-1.805-1.93-.38-.523-.279-.731 0-1.2-.025 0 3.178-4.646 3.508-6.214" clip-rule="evenodd"/></symbol>
<symbol id="youtube" viewBox="0 0 24 17"><path fill="#EFF3F5" d="M23.494 2.52a2.86 2.86 0 00-.776-1.289 3.03 3.03 0 00-1.341-.745C19.508 0 12 0 12 0S4.492 0 2.623.486a3.03 3.03 0 00-1.341.745 2.86 2.86 0 00-.776 1.29 28.638 28.638 0 00-.505 5.552 28.59 28.59 0 00.505 5.552c.137.488.404.932.776 1.29a3.03 3.03 0 001.341.745c1.869.486 9.377.486 9.377.486s7.508 0 9.377-.486a3.03 3.03 0 001.341-.745 2.86 2.86 0 00.776-1.29c.349-1.831.518-3.69.505-5.552a28.637 28.637 0 00-.505-5.552zM9.6 11.534v-6.92l6.231 3.46-6.23 3.46z"/></symbol>
</svg>