<svg xmlns="http://www.w3.org/2000/svg" fill="none" viewBox="0 0 24 17"><path fill="#EFF3F5" d="M23.4937 2.52073c-.1366-.48763-.404-.93225-.7756-1.28933-.3715-.357086-.8341-.61412-1.3415-.745376C19.5082 1.5e-7 12 0 12 0S4.49183 1.5e-7 2.62336.486024c-.50737.131256-.96996.38829-1.3415.745376-.371529.35708-.638961.8017-.775528 1.28933C.157447 4.35219-.0118575 6.21107.00064491 8.07294-.0118575 9.9348.157447 11.7937.506332 13.6251c.136567.4877.403999.9323.775528 1.2894.37154.3571.83413.6141 1.3415.7454 1.86847.486 9.37664.486 9.37664.486s7.5082 0 9.3766-.486c.5074-.1313.97-.3883 1.3415-.7454.3716-.3571.639-.8017.7756-1.2894.3489-1.8314.5182-3.6903.5057-5.55216.0125-1.86187-.1568-3.72075-.5057-5.55221ZM9.60013 11.5328V4.61311l6.23107 3.45983-6.23107 3.45986Z"/></svg>